<svg xmlns="http://www.w3.org/2000/svg" viewBox="70 190 370 115"><g id="OBJECTS"><path d="M323,260.161l4.1-5.724c2.485,1.835,4.7,2.7,6.588,2.7,1.945,0,2.7-.54,2.7-1.62,0-1.405-2.484-2.052-5.184-3.132-3.132-1.242-6.8-3.565-6.8-7.992,0-5.292,4.32-8.748,10.691-8.748a15.992,15.992,0,0,1,9.937,3.563l-4.105,5.509a10.015,10.015,0,0,0-5.507-2.269c-1.567,0-2.376.433-2.376,1.512,0,1.4,2.376,1.944,5.076,2.917,3.24,1.187,6.912,3.239,6.912,8.1,0,5.076-4,8.963-11.556,8.963A18,18,0,0,1,323,260.161Z" fill="#1A1D2E"/><path d="M279.153,228.3c0-2.7,2.16-4.644,5.184-4.644s5.183,1.945,5.183,4.644-2.159,4.644-5.183,4.644S279.153,231,279.153,228.3Zm.539,7.992h9.289v27h-9.289Z" fill="#1A1D2E"/><path d="M238.114,228.3c0-2.7,2.16-4.644,5.184-4.644s5.185,1.945,5.185,4.644-2.16,4.644-5.185,4.644S238.114,231,238.114,228.3Zm.54,7.992h9.288v27h-9.288Z" fill="#1A1D2E"/><path d="M183.919,276.374h3.816c3.431,0,5.492,1.113,5.492,4.222,0,2.973-2.024,4.415-5.4,4.415h-2.85v6.517h-1.058Zm3.641,7.745c3.1,0,4.577-1.03,4.577-3.523,0-2.534-1.536-3.33-4.668-3.33h-2.492v6.853Z" fill="#1A1D2E"/><path d="M196.431,280.486h.859l.11,2.06h.051a3.835,3.835,0,0,1,3.142-2.337,2.3,2.3,0,0,1,1.093.23l-.229.92a2.477,2.477,0,0,0-1-.184c-.993,0-2.171.755-3.013,2.843v7.51h-1.015Z" fill="#1A1D2E"/><path d="M202.562,286.027c0-3.693,2.3-5.818,4.957-5.818s4.958,2.125,4.958,5.818c0,3.652-2.3,5.777-4.958,5.777S202.562,289.679,202.562,286.027Zm8.848,0c0-2.906-1.66-4.921-3.891-4.921s-3.89,2.015-3.89,4.921,1.66,4.88,3.89,4.88S211.41,288.934,211.41,286.027Z" fill="#1A1D2E"/><path d="M214.407,280.582l1.541-.1h3.546v.887h-5.087Zm1.518-2.552c0-2.192.984-3.321,2.731-3.321a4.118,4.118,0,0,1,1.611.373l-.277.828a3,3,0,0,0-1.315-.313c-1.191,0-1.734.9-1.734,2.5v13.429h-1.016Z" fill="#1A1D2E"/><path d="M220.663,286.027c0-3.6,2.341-5.818,4.815-5.818,2.617,0,4.227,1.863,4.227,5.11a4.805,4.805,0,0,1-.058.828h-7.94c.037,2.787,1.669,4.778,4.157,4.778a4.975,4.975,0,0,0,2.967-.979l.418.772a6.041,6.041,0,0,1-3.481,1.086C222.949,291.8,220.663,289.638,220.663,286.027Zm8.085-.717c0-2.819-1.278-4.222-3.261-4.222-1.867,0-3.554,1.582-3.785,4.222Z" fill="#1A1D2E"/><path d="M231.325,290.277l.589-.74a5.111,5.111,0,0,0,3.509,1.4c1.738,0,2.639-1.017,2.639-2.18,0-1.385-1.429-1.992-2.7-2.452-1.664-.591-3.517-1.269-3.517-3.155,0-1.591,1.26-2.939,3.559-2.939a5.181,5.181,0,0,1,3.155,1.146l-.547.731a4.211,4.211,0,0,0-2.636-1.007c-1.722,0-2.5.991-2.5,2.01,0,1.26,1.3,1.738,2.617,2.235,1.711.651,3.606,1.214,3.606,3.366,0,1.665-1.329,3.114-3.721,3.114A6.309,6.309,0,0,1,231.325,290.277Z" fill="#1A1D2E"/><path d="M241.62,276.917a.925.925,0,0,1,1.849,0,.925.925,0,0,1-1.849,0Zm.4,3.569h1.015v11.042h-1.015Z" fill="#1A1D2E"/><path d="M246.353,286.027c0-3.693,2.3-5.818,4.958-5.818s4.958,2.125,4.958,5.818c0,3.652-2.3,5.777-4.958,5.777S246.353,289.679,246.353,286.027Zm8.849,0c0-2.906-1.66-4.921-3.891-4.921s-3.891,2.015-3.891,4.921,1.661,4.88,3.891,4.88S255.2,288.934,255.2,286.027Z" fill="#1A1D2E"/><path d="M259.587,280.486h.86l.111,1.71h.05a5.419,5.419,0,0,1,3.8-1.987c2.28,0,3.339,1.385,3.339,4.236v7.083h-1.017v-6.949c0-2.341-.74-3.454-2.515-3.454-1.316,0-2.268.694-3.611,2.074v8.329h-1.016Z" fill="#1A1D2E"/><path d="M271.032,288.78c0-2.454,2.212-3.622,7.124-4.164.032-1.7-.432-3.514-2.6-3.514a6.055,6.055,0,0,0-3.519,1.3l-.469-.754a7.421,7.421,0,0,1,4.108-1.436c2.616,0,3.5,1.9,3.5,4.264v7.055h-.86l-.11-1.435h-.051a6.508,6.508,0,0,1-3.918,1.711A2.9,2.9,0,0,1,271.032,288.78Zm7.124.366v-3.758c-4.535.525-6.085,1.578-6.085,3.339a2.073,2.073,0,0,0,2.341,2.194A5.808,5.808,0,0,0,278.156,289.146Z" fill="#1A1D2E"/><path d="M283.116,290.047V274.985h1.016v15.2c0,.492.2.722.478.722a1.734,1.734,0,0,0,.414-.046l.17.828a2.282,2.282,0,0,1-.73.115C283.576,291.8,283.116,291.256,283.116,290.047Z" fill="#1A1D2E"/><path d="M287.639,286.027c0-3.6,2.34-5.818,4.814-5.818,2.617,0,4.227,1.863,4.227,5.11a4.707,4.707,0,0,1-.058.828h-7.94c.037,2.787,1.67,4.778,4.158,4.778a4.975,4.975,0,0,0,2.966-.979l.419.772a6.047,6.047,0,0,1-3.482,1.086C289.924,291.8,287.639,289.638,287.639,286.027Zm8.085-.717c0-2.819-1.28-4.222-3.261-4.222-1.867,0-3.556,1.582-3.785,4.222Z" fill="#1A1D2E"/><path d="M298.3,290.277l.588-.74a5.109,5.109,0,0,0,3.509,1.4c1.739,0,2.64-1.017,2.64-2.18,0-1.385-1.431-1.992-2.7-2.452-1.665-.591-3.519-1.269-3.519-3.155,0-1.591,1.26-2.939,3.56-2.939a5.179,5.179,0,0,1,3.155,1.146l-.548.731a4.205,4.205,0,0,0-2.634-1.007c-1.723,0-2.5.991-2.5,2.01,0,1.26,1.3,1.738,2.617,2.235,1.71.651,3.6,1.214,3.6,3.366,0,1.665-1.329,3.114-3.72,3.114A6.3,6.3,0,0,1,298.3,290.277Z" fill="#1A1D2E"/><path d="M312.8,288.78c0-2.454,2.212-3.622,7.124-4.164.032-1.7-.433-3.514-2.6-3.514a6.055,6.055,0,0,0-3.518,1.3l-.469-.754a7.414,7.414,0,0,1,4.107-1.436c2.617,0,3.5,1.9,3.5,4.264v7.055h-.859l-.11-1.435h-.051A6.51,6.51,0,0,1,316,291.8,2.9,2.9,0,0,1,312.8,288.78Zm7.124.366v-3.758c-4.535.525-6.085,1.578-6.085,3.339a2.073,2.073,0,0,0,2.341,2.194A5.81,5.81,0,0,0,319.924,289.146Z" fill="#1A1D2E"/><path d="M329.741,288.479v-7.106h-1.724v-.791l1.747-.1.129-3.2h.864v3.2h3.2v.887h-3.2v7.182c0,1.409.354,2.362,1.877,2.362a3.989,3.989,0,0,0,1.384-.35l.266.823a6.361,6.361,0,0,1-1.8.414C330.361,291.8,329.741,290.456,329.741,288.479Z" fill="#1A1D2E"/><path d="M336.484,287.568v-7.082H337.5v6.949c0,2.341.74,3.454,2.516,3.454,1.315,0,2.267-.69,3.559-2.254v-8.149h1.017v11.042h-.861l-.11-1.849h-.05a4.931,4.931,0,0,1-3.749,2.125C337.543,291.8,336.484,290.419,336.484,287.568Z" fill="#1A1D2E"/><path d="M352.635,288.78c0-2.454,2.213-3.622,7.124-4.164.032-1.7-.433-3.514-2.6-3.514a6.052,6.052,0,0,0-3.518,1.3l-.469-.754a7.407,7.407,0,0,1,4.106-1.436c2.618,0,3.5,1.9,3.5,4.264v7.055h-.86l-.11-1.435h-.051a6.508,6.508,0,0,1-3.918,1.711A2.9,2.9,0,0,1,352.635,288.78Zm7.124.366v-3.758c-4.534.525-6.085,1.578-6.085,3.339a2.074,2.074,0,0,0,2.342,2.194A5.808,5.808,0,0,0,359.759,289.146Z" fill="#1A1D2E"/><path d="M364.719,290.047V274.985h1.016v15.2c0,.492.2.722.479.722a1.743,1.743,0,0,0,.414-.046l.17.828a2.29,2.29,0,0,1-.732.115C365.179,291.8,364.719,291.256,364.719,290.047Z" fill="#1A1D2E"/><path d="M369.241,286.027c0-3.693,2.36-5.818,5.045-5.818a4.538,4.538,0,0,1,3.233,1.362l-.6.708a3.771,3.771,0,0,0-2.612-1.173c-2.259,0-4,2.015-4,4.921s1.586,4.88,3.988,4.88a4.4,4.4,0,0,0,2.957-1.274l.524.713a5.25,5.25,0,0,1-3.528,1.458C371.4,291.8,369.241,289.679,369.241,286.027Z" fill="#1A1D2E"/><path d="M379.476,288.78c0-2.454,2.212-3.622,7.124-4.164.032-1.7-.433-3.514-2.6-3.514a6.058,6.058,0,0,0-3.519,1.3l-.468-.754a7.407,7.407,0,0,1,4.106-1.436c2.617,0,3.5,1.9,3.5,4.264v7.055h-.86l-.111-1.435h-.05a6.508,6.508,0,0,1-3.918,1.711A2.9,2.9,0,0,1,379.476,288.78Zm7.124.366v-3.758c-4.535.525-6.085,1.578-6.085,3.339a2.073,2.073,0,0,0,2.341,2.194A5.81,5.81,0,0,0,386.6,289.146Z" fill="#1A1D2E"/><path d="M391.56,280.486h.86l.11,1.71h.051a5.417,5.417,0,0,1,3.8-1.987c2.28,0,3.339,1.385,3.339,4.236v7.083H398.7v-6.949c0-2.341-.74-3.454-2.516-3.454-1.315,0-2.267.694-3.61,2.074v8.329H391.56Z" fill="#1A1D2E"/><path d="M402.867,286.027c0-3.693,2.359-5.818,5.045-5.818a4.533,4.533,0,0,1,3.232,1.362l-.6.708a3.771,3.771,0,0,0-2.612-1.173c-2.258,0-4,2.015-4,4.921s1.586,4.88,3.987,4.88a4.4,4.4,0,0,0,2.957-1.274l.524.713a5.248,5.248,0,0,1-3.527,1.458C405.023,291.8,402.867,289.679,402.867,286.027Z" fill="#1A1D2E"/><path d="M412.8,286.027c0-3.6,2.341-5.818,4.815-5.818,2.616,0,4.227,1.863,4.227,5.11a4.805,4.805,0,0,1-.058.828h-7.94c.037,2.787,1.669,4.778,4.157,4.778a4.975,4.975,0,0,0,2.967-.979l.418.772a6.047,6.047,0,0,1-3.482,1.086C415.089,291.8,412.8,289.638,412.8,286.027Zm8.085-.717c0-2.819-1.279-4.222-3.261-4.222-1.867,0-3.555,1.582-3.785,4.222Z" fill="#1A1D2E"/><path d="M177.2,243.613c0-12.839,7.319-20.039,18.119-20.039s18.119,7.26,18.119,20.039c0,12.84-7.32,20.4-18.119,20.4S177.2,256.453,177.2,243.613Zm27.624.18c0-7.079-4.825-11.339-9.5-11.339s-9.006,4.26-9.006,11.339,4.326,11.34,9.006,11.34S204.828,250.874,204.828,243.793Z" fill="#1A1D2E"/><path d="M217.27,236.616l4.1-.324h13.284v7.236H217.27Zm3.565-.647c0-5.779,2.7-10.908,10.692-10.908,2.484,0,2.962.069,4.15.5l-.045,7.275a8.047,8.047,0,0,0-2.7-.54c-1.727,0-2.807.81-2.807,3.349v34.61h-9.288Z" fill="#1A1D2E"/><path d="M293.841,249.793c0-8.965,6.48-14.148,13.392-14.148s13.393,5.183,13.393,14.148-6.481,14.147-13.393,14.147S293.841,258.757,293.841,249.793Zm17.28,0c0-4.105-1.08-6.7-3.888-6.7s-3.888,2.591-3.888,6.7,1.08,6.695,3.888,6.695S311.121,253.9,311.121,249.793Z" fill="#1A1D2E"/><path d="M252.8,249.793c0-8.965,6.8-14.148,14.472-14.148A11.879,11.879,0,0,1,275.1,238.4c.038.031.272.187.274.235l-.013,7.518a.163.163,0,0,1-.285.112c-1.249-1.314-5.321-3.4-7.262-3.171-3.726.431-5.509,2.591-5.509,6.7s2.284,6.4,5.186,6.695c2.181.222,6.1-2.131,7.628-3.217a.162.162,0,0,1,.255.134v7.326a.172.172,0,0,1-.059.129,13.6,13.6,0,0,1-8.9,3.08C258.742,263.94,252.8,258.757,252.8,249.793Z" fill="#1A1D2E"/><path d="M349.077,244.094c0-13.08,9-20.52,19.438-20.52a17.6,17.6,0,0,1,12.72,5.16l-5.4,6.6a9.761,9.761,0,0,0-6.959-2.88c-5.281,0-9.24,4.2-9.24,11.279,0,7.321,3.24,11.4,10.2,11.4a5.833,5.833,0,0,0,3-.72v-5.4h-5.76v-8.4h14.88v18.6a19.7,19.7,0,0,1-13.2,4.8C357.836,264.013,349.077,257.413,349.077,244.094Z" fill="#F8C927"/><path d="M386.925,249.793c0-8.965,6.479-14.148,13.391-14.148s13.392,5.183,13.392,14.148-6.48,14.147-13.392,14.147S386.925,258.757,386.925,249.793Zm17.279,0c0-4.105-1.08-6.7-3.888-6.7s-3.888,2.591-3.888,6.7,1.081,6.695,3.888,6.695S404.2,253.9,404.2,249.793Z" fill="#F8C927"/><path d="M419.757,258.324a5.4,5.4,0,1,1,5.4,5.616A5.4,5.4,0,0,1,419.757,258.324Zm1.08-23.22-.325-7.992H429.8l-.325,7.992-1.3,15.012h-6.047Z" fill="#F8C927"/><path d="M113.954,231.77a16.284,16.284,0,1,0,22.932,2.124,16.284,16.284,0,0,0-22.932-2.124Zm-5.822-20.985a37.13,37.13,0,0,1,9.453-2.924l2.844-8.724,15.115,1.4,1.193,9.1a37.125,37.125,0,0,1,8.756,4.611l8.176-4.155,9.7,11.677-5.586,7.273a37.156,37.156,0,0,1,2.924,9.455l8.723,2.844-1.4,15.115-9.1,1.193a37.179,37.179,0,0,1-4.612,8.755l4.156,8.177-11.678,9.7-7.272-5.586a37.2,37.2,0,0,1-9.456,2.924l-2.844,8.724-15.115-1.4-1.193-9.1a37.142,37.142,0,0,1-8.755-4.612l-8.177,4.157-9.7-11.678,5.587-7.273a37.144,37.144,0,0,1-2.924-9.455l-8.724-2.844,1.4-15.115,9.1-1.193a37.142,37.142,0,0,1,4.612-8.755L89.179,214.9l11.679-9.7,7.274,5.587Z" fill="#f8e40b" fill-rule="evenodd"/><circle cx="124.872" cy="243.945" r="21.365"/><path d="M132.027,207.655H147.1a1.017,1.017,0,0,1,1.017,1.017v55.77a1.017,1.017,0,0,1-1.017,1.017H131.01a0,0,0,0,1,0,0V208.672A1.017,1.017,0,0,1,132.027,207.655Z" transform="translate(222.571 -25.259) rotate(48.131)"/><path d="M138.6,207.779h7.641a1.017,1.017,0,0,1,1.017,1.017v51.7a1.017,1.017,0,0,1-1.017,1.017h-8.659a0,0,0,0,1,0,0V208.8A1.017,1.017,0,0,1,138.6,207.779Z" transform="translate(222.094 -28.019) rotate(48.131)" fill="#1A1D2E"/><path d="M116.358,233.5h7.083a1.017,1.017,0,0,1,1.017,1.017v22.769a0,0,0,0,1,0,0h-9.117a0,0,0,0,1,0,0V234.518A1.017,1.017,0,0,1,116.358,233.5Z" transform="translate(-133.171 142.682) rotate(-41.869)" fill="#1A1D2E"/></g></svg>